<svg width="563" height="469" viewBox="0 0 563 469" fill="none" xmlns="http://www.w3.org/2000/svg">
<path d="M539.044 429.999L557.496 420.616L548.095 439.03L562.738 453.645L542.283 450.411L532.881 468.826L529.642 448.413L509.187 445.18L527.639 435.798L524.399 415.385L539.044 429.999ZM68.0439 318.481L86.4961 309.099L77.0947 327.513L91.7383 342.127L71.2832 338.894L61.8809 357.309L58.6416 336.896L38.1865 333.662L56.6387 324.28L53.3994 303.867L68.0439 318.481ZM29.8574 65.4004L48.3096 56.0176L38.9082 74.4316L53.5518 89.0459L33.0967 85.8125L23.6943 104.228L20.4551 83.8145L0 80.5811L18.4521 71.1992L15.2129 50.7861L29.8574 65.4004ZM500.794 14.6143L519.246 5.23145L509.845 23.6455L524.488 38.2598L504.033 35.0264L494.631 53.4414L491.392 33.0283L470.937 29.7949L489.389 20.4131L486.149 0L500.794 14.6143Z" fill="white" fill-opacity="0.5"/>
</svg>
