<svg width="563" height="14" viewBox="0 0 563 14" fill="none" xmlns="http://www.w3.org/2000/svg">
<path d="M539.293 430.782L557.745 421.399L548.344 439.813L562.987 454.428L542.532 451.194L533.13 469.609L529.891 449.196L509.436 445.963L527.888 436.581L524.648 416.168L539.293 430.782ZM68.293 319.265L86.7451 309.882L77.3438 328.296L91.9873 342.91L71.5322 339.677L62.1299 358.092L58.8906 337.679L38.4355 334.445L56.8877 325.063L53.6484 304.65L68.293 319.265ZM30.1064 66.1836L48.5586 56.8008L39.1572 75.2148L53.8008 89.8291L33.3457 86.5957L23.9434 105.011L20.7041 84.5977L0.249023 81.3643L18.7012 71.9824L15.4619 51.5693L30.1064 66.1836ZM501.043 15.3975L519.495 6.01465L510.094 24.4287L524.737 39.043L504.282 35.8096L494.88 54.2246L491.641 33.8115L471.186 30.5781L489.638 21.1963L486.398 0.783203L501.043 15.3975Z" fill="white" fill-opacity="0.5"/>
</svg>
