<svg width="563" height="473" viewBox="0 0 563 473" fill="none" xmlns="http://www.w3.org/2000/svg">
<path d="M539.293 433.735L557.745 424.286L548.344 442.831L562.987 457.549L542.532 454.293L533.13 472.839L529.891 452.281L509.436 449.024L527.888 439.575L524.648 419.018L539.293 433.735ZM68.293 321.425L86.7451 311.976L77.3438 330.521L91.9873 345.238L71.5322 341.982L62.1299 360.528L58.8906 339.971L38.4355 336.714L56.8877 327.265L53.6484 306.707L68.293 321.425ZM30.1055 66.543L48.5586 57.0938L39.1562 75.6387L53.8008 90.3564L33.3457 87.1006L23.9434 105.646L20.7031 85.0889L0.248047 81.832L18.7012 72.3828L15.4609 51.8252L30.1055 66.543ZM501.043 15.3955L519.495 5.94629L510.094 24.4922L524.737 39.21L504.282 35.9541L494.88 54.499L491.641 33.9414L471.186 30.6855L489.638 21.2363L486.398 0.677734L501.043 15.3955Z" fill="white" fill-opacity="0.5"/>
</svg>
